<svg width="21" height="21" viewBox="0 0 21 21" fill="none" xmlns="http://www.w3.org/2000/svg">
<g clip-path="url(#clip0_419_1607)">
<path fill-rule="evenodd" clip-rule="evenodd" d="M2.92933 4.43639C2.92825 3.8191 2.74482 3.00546 3.59453 2.93743C3.90074 2.9247 4.21295 2.93733 4.51986 2.93724L6.25375 2.93719C7.86632 2.94427 9.4655 3.54822 10.6085 4.70263C12.0903 3.16801 13.7563 2.93738 15.7454 2.93714L18.8439 2.93722C19.5333 2.93641 20.5738 2.66681 20.5793 3.56064V17.4287C20.579 18.6093 20.391 18.5515 19.3985 18.5506L15.6009 18.5497C14.0264 18.5497 12.7879 18.5359 11.417 19.4203C10.7963 19.8207 10.6772 20.1724 10.0246 19.5924C8.73381 18.4452 7.14716 18.5501 5.55739 18.5499L1.46627 18.5509C0.430939 18.5526 0.430761 18.4588 0.43062 17.4727L0.421875 4.96325C0.421422 4.32328 1.0719 4.43526 1.50237 4.43547L2.92933 4.43639ZM15.8511 4.06628C14.2068 4.06471 12.8363 4.07297 11.5573 5.3553C11.3157 5.59755 11.1628 5.70623 11.1642 6.05415L11.1674 18.2201C12.2461 17.7793 12.7703 17.5233 14.0246 17.4103H19.4384V4.06628H15.8511ZM4.05787 4.06628V17.4103L5.84264 17.4097C7.15559 17.4099 8.45077 17.4131 9.64461 18.0619C9.77727 18.134 9.90318 18.218 10.0362 18.2895C10.0939 18.1943 10.0365 17.9339 10.0362 17.8183L10.0365 6.96328C10.0367 6.58868 10.0558 6.20517 10.0362 5.83193C9.47608 4.97568 8.2595 4.37962 7.29738 4.1762C6.22745 3.95004 5.13585 4.12812 4.05787 4.06628ZM1.56299 5.56628V17.4103H2.92933C2.95229 17.0993 2.92922 16.7687 2.92928 16.4559L2.92885 6.37035C2.92868 6.10605 2.90989 5.82885 2.92933 5.56628L2.01754 5.56525C1.86752 5.56504 1.71245 5.55623 1.56299 5.56628Z" fill="#3E477C"/>
<path d="M10.5475 5.29712V19.017L7.10406 18.0312L3.40402 17.7206V3.60915H7.10406C7.27691 3.60915 9.47173 4.73446 10.5475 5.29712Z" fill="#3E477C"/>
</g>
<defs>
<clipPath id="clip0_419_1607">
<rect width="20" height="20" fill="white" transform="translate(0.5 0.898438)"/>
</clipPath>
</defs>
</svg>
