<svg width="21" height="21" viewBox="0 0 21 21" fill="none" xmlns="http://www.w3.org/2000/svg">
<g clip-path="url(#clip0_447_605)">
<path d="M2.74321 20.0985C2.1289 19.6684 1.9796 18.8217 2.40975 18.2074L11.3976 5.37136C11.8278 4.75705 12.6745 4.60776 13.2888 5.0379L13.5112 5.19367C14.1256 5.62382 14.2749 6.47052 13.8447 7.08483L4.85682 19.9209C4.42668 20.5352 3.57998 20.6845 2.96567 20.2543L2.74321 20.0985Z" fill="#3E477C"/>
<path d="M13.5112 20.0985C14.1256 19.6684 14.2749 18.8217 13.8447 18.2074L4.85682 5.37136C4.42668 4.75705 3.57998 4.60776 2.96567 5.0379L2.74321 5.19367C2.1289 5.62382 1.9796 6.47052 2.40975 7.08483L11.3976 19.9209C11.8278 20.5352 12.6745 20.6845 13.2888 20.2543L13.5112 20.0985Z" fill="#3E477C"/>
<path d="M15.2901 7.28938C15.1401 7.28938 15.0185 7.16779 15.0185 7.01781V5.99571C15.0185 5.92766 15.0441 5.86209 15.0901 5.81198L17.451 3.24223C17.5767 3.10985 17.6647 2.99322 17.715 2.89236C17.7652 2.7915 17.7904 2.66857 17.7904 2.52358C17.7904 2.34076 17.7401 2.19262 17.6395 2.07915C17.539 1.95937 17.3881 1.89948 17.187 1.89948C17.1179 1.89948 17.0456 1.90894 16.9701 1.92785C16.8947 1.94676 16.8256 1.98143 16.7627 2.03187C16.7062 2.0823 16.659 2.14849 16.6213 2.23044C16.6136 2.24718 16.6067 2.26498 16.6006 2.28383C16.5542 2.42646 16.4432 2.55194 16.2932 2.55194H15.2901C15.1401 2.55194 15.0166 2.42999 15.0323 2.28083C15.0554 2.06189 15.1074 1.86227 15.1882 1.682C15.3077 1.42353 15.4648 1.20605 15.6596 1.02953C15.8608 0.853023 16.0902 0.720639 16.3479 0.632383C16.6119 0.544128 16.8916 0.5 17.187 0.5C17.495 0.5 17.781 0.54728 18.0449 0.64184C18.3089 0.736399 18.5352 0.871935 18.7238 1.04845C18.9186 1.21865 19.0695 1.42984 19.1763 1.682C19.2832 1.93415 19.3366 2.21783 19.3366 2.53303C19.3366 2.70954 19.3177 2.8703 19.28 3.01529C19.2486 3.15397 19.1952 3.28636 19.1197 3.41244C19.0506 3.53852 18.9626 3.6646 18.8558 3.79068C18.7552 3.91676 18.6389 4.04914 18.5069 4.18783L17.3352 5.43215C17.172 5.60544 17.2949 5.8899 17.5329 5.8899H19.065C19.215 5.8899 19.3366 6.01149 19.3366 6.16147V7.01781C19.3366 7.16779 19.215 7.28938 19.065 7.28938H15.2901Z" fill="#3E477C"/>
</g>
<defs>
<clipPath id="clip0_447_605">
<rect width="20" height="20" fill="white" transform="translate(0.25 0.5)"/>
</clipPath>
</defs>
</svg>
