<svg width="21" height="21" viewBox="0 0 21 21" fill="none" xmlns="http://www.w3.org/2000/svg">
<g clip-path="url(#clip0_419_1650)">
<path fill-rule="evenodd" clip-rule="evenodd" d="M19.4969 1.83669H4.72681V16.9726H19.4969V1.83669ZM15.2557 7.05348C15.3477 7.05536 15.4407 7.05726 15.5306 7.05086C16.4999 6.9399 16.5084 5.59084 15.5793 5.50818C15.347 5.48756 15.0807 5.4938 14.8251 5.49979C14.7077 5.50254 14.5925 5.50524 14.4839 5.50526L8.92828 5.50374C8.88912 5.50367 8.84938 5.50284 8.80944 5.502C8.71913 5.50011 8.62781 5.4982 8.53976 5.50503C7.78898 5.54189 7.56442 6.41121 8.07381 6.86203C8.34874 7.10538 8.95492 7.07927 9.40423 7.05992C9.51281 7.05524 9.61223 7.05096 9.6956 7.05097L15.1302 7.0517C15.1716 7.05176 15.2135 7.05262 15.2557 7.05348H15.2557ZM15.0954 10.1151C15.2924 10.1214 15.5058 10.1282 15.6666 10.1087C16.6062 9.72715 16.3572 8.59641 15.5329 8.54852C15.3172 8.53603 15.0988 8.53839 14.8814 8.54075L14.8814 8.54075C14.7973 8.54166 14.7133 8.54257 14.6297 8.54261L8.42908 8.54295C7.56262 8.7454 7.62418 10.0491 8.55793 10.1045C8.89054 10.1243 9.23002 10.1188 9.56755 10.1132C9.72634 10.1106 9.88469 10.108 10.0417 10.1081L14.8438 10.1094C14.9201 10.1095 15.006 10.1123 15.0953 10.1151H15.0954ZM9.59235 13.1846C9.50738 13.1846 9.41293 13.1868 9.31397 13.189C9.01406 13.1959 8.67268 13.2037 8.42824 13.1552C7.63386 12.9977 7.61816 11.8119 8.3691 11.6762C8.52647 11.6477 8.68909 11.6489 8.84958 11.6501C8.88286 11.6504 8.91606 11.6506 8.9491 11.6506L14.5816 11.6505C14.6567 11.6505 14.7464 11.6484 14.8431 11.6461L14.8433 11.6461C15.1364 11.6392 15.4935 11.6308 15.7006 11.675C16.271 11.7967 16.4286 12.5734 16.0378 12.9641C15.8109 13.1909 15.4984 13.1879 15.199 13.1851C15.1648 13.1847 15.1307 13.1844 15.097 13.1844L9.59235 13.1846Z" fill="#3E477C"/>
<path d="M3.49017 3.93281L3.48055 1.68973C3.47836 0.794629 4.32236 0.90251 4.94721 0.902505L19.2683 0.902639C20.5395 0.901334 20.5084 1.23597 20.5073 2.29493L20.5064 15.9483C20.5066 16.5425 20.6926 17.5962 19.9695 17.7973C19.2885 17.9868 18.2584 17.7888 17.5315 17.857L17.5089 17.8592C17.4954 18.3807 17.5096 18.9062 17.5103 19.4281C17.5125 20.9051 17.2265 20.897 15.81 20.8975L1.74291 20.8972C1.3836 20.8971 1.03721 20.9299 0.75104 20.6645C0.372992 20.3138 0.495356 19.2134 0.495812 18.7145L0.495047 5.24665C0.492746 3.87075 0.779832 3.93208 1.93551 3.93203L3.49017 3.93281ZM5.01383 2.44607L5.01366 14.7865C5.01366 15.299 5.0001 15.8155 5.01383 16.3276H18.9266C18.9396 16.1444 18.9293 15.9559 18.928 15.7721L18.9266 2.44607H5.01383ZM2.08833 5.50503V19.3169H15.9135C16.0367 19.2925 15.9658 18.1076 15.9658 17.8592L5.43161 17.859C4.65569 17.8591 3.48545 18.1017 3.48539 16.9562L3.49017 5.50503H2.08833Z" fill="#3E477C"/>
</g>
<defs>
<clipPath id="clip0_419_1650">
<rect width="20" height="20" fill="white" transform="translate(0.5 0.898438)"/>
</clipPath>
</defs>
</svg>
