<svg width="21" height="21" viewBox="0 0 21 21" fill="none" xmlns="http://www.w3.org/2000/svg">
<g clip-path="url(#clip0_419_1582)">
<path d="M19.1812 9.08433C19.641 7.72243 19.4827 6.23052 18.7473 4.99174C17.6413 3.0917 15.4181 2.11418 13.2468 2.57419C12.2808 1.50042 10.893 0.88978 9.43806 0.89853C7.21859 0.89353 5.24932 2.30356 4.5665 4.38735C3.1407 4.67549 1.90998 5.55613 1.1898 6.80428C0.0756283 8.69932 0.329626 11.0881 1.81814 12.7132C1.35828 14.0751 1.51664 15.567 2.25202 16.8057C3.35796 18.7058 5.58123 19.6833 7.75255 19.2233C8.71787 20.2971 10.1063 20.9077 11.5612 20.8983C13.782 20.904 15.7519 19.4927 16.4347 17.407C17.8605 17.1189 19.0912 16.2382 19.8114 14.9901C20.9243 13.095 20.6697 10.7081 19.1818 9.08308L19.1812 9.08433ZM11.5625 19.5914C10.6738 19.5927 9.81304 19.2858 9.13085 18.7239C9.16189 18.7077 9.21573 18.6783 9.25057 18.657L13.2867 16.357C13.4931 16.2414 13.6198 16.0245 13.6186 15.7901V10.1756L15.3243 11.1475C15.3427 11.1562 15.3547 11.1737 15.3573 11.1937V15.8432C15.3547 17.9108 13.6578 19.5871 11.5625 19.5914ZM3.40166 16.152C2.95638 15.3932 2.79612 14.5038 2.94877 13.6407C2.97855 13.6582 3.03112 13.6901 3.06849 13.7113L7.10458 16.0114C7.30917 16.1295 7.56253 16.1295 7.76776 16.0114L12.6951 13.2038V15.1476C12.6963 15.1676 12.6868 15.187 12.671 15.1995L8.59119 17.5239C6.77394 18.5564 4.45312 17.9426 3.4023 16.152H3.40166ZM2.33943 7.45867C2.78282 6.69865 3.48274 6.11739 4.31631 5.81551C4.31631 5.84989 4.31441 5.91051 4.31441 5.95301V10.5537C4.31314 10.7875 4.43982 11.0044 4.64568 11.12L9.57297 13.9269L7.8672 14.8988C7.8501 14.9101 7.82856 14.912 7.80956 14.9038L3.72914 12.5775C1.91568 11.5413 1.29368 9.25183 2.3388 7.4593L2.33943 7.45867ZM16.3543 10.6769L11.427 7.8693L13.1327 6.89803C13.1498 6.88678 13.1714 6.88491 13.1904 6.89303L17.2708 9.21746C19.0874 10.2531 19.7101 12.5463 18.6605 14.3388C18.2165 15.0976 17.5172 15.6788 16.6843 15.9814V11.2431C16.6862 11.0094 16.5601 10.7931 16.3549 10.6769H16.3543ZM18.0518 8.15556C18.022 8.13743 17.9695 8.10618 17.9321 8.08493L13.896 5.78488C13.6914 5.66676 13.438 5.66676 13.2328 5.78488L8.30552 8.59244V6.64865C8.30425 6.62865 8.31376 6.60928 8.32959 6.59678L12.4094 4.27423C14.2266 3.23983 16.55 3.85547 17.5976 5.64926C18.0404 6.40677 18.2006 7.29367 18.0505 8.15556H18.0518ZM7.37821 11.62L5.6718 10.6481C5.65343 10.6394 5.6414 10.6219 5.63887 10.6019V5.95239C5.64013 3.88234 7.34211 2.20481 9.43996 2.20606C10.3274 2.20606 11.1863 2.51356 11.8685 3.07358C11.8374 3.08983 11.7842 3.1192 11.7487 3.14045L7.71265 5.4405C7.50616 5.55613 7.37948 5.77238 7.38074 6.00676L7.37821 11.6188V11.62ZM8.30489 9.64872L10.4997 8.39807L12.6944 9.64809V12.1488L10.4997 13.3988L8.30489 12.1488V9.64872Z" fill="#3E477C"/>
</g>
<defs>
<clipPath id="clip0_419_1582">
<rect width="20" height="20" fill="white" transform="translate(0.5 0.898438)"/>
</clipPath>
</defs>
</svg>
