<svg width="50" height="51" viewBox="0 0 50 51" fill="none" xmlns="http://www.w3.org/2000/svg">
<rect y="0.265625" width="50" height="50" rx="10" fill="url(#paint0_linear_419_946)"/>
<g clip-path="url(#clip0_419_946)">
<path d="M33.6812 23.4515C34.141 22.0896 33.9827 20.5977 33.2473 19.3589C32.1413 17.4589 29.9181 16.4814 27.7468 16.9414C26.7808 15.8676 25.393 15.257 23.9381 15.2657C21.7186 15.2607 19.7493 16.6707 19.0665 18.7545C17.6407 19.0427 16.41 19.9233 15.6898 21.1715C14.5756 23.0665 14.8296 25.4553 16.3181 27.0803C15.8583 28.4422 16.0166 29.9342 16.752 31.1729C17.858 33.073 20.0812 34.0505 22.2526 33.5905C23.2179 34.6643 24.6063 35.2749 26.0612 35.2655C28.282 35.2711 30.2519 33.8599 30.9347 31.7742C32.3605 31.4861 33.5912 30.6054 34.3114 29.3573C35.4243 27.4622 35.1697 25.0753 33.6818 23.4503L33.6812 23.4515ZM26.0625 33.9586C25.1738 33.9599 24.313 33.653 23.6309 33.0911C23.6619 33.0748 23.7157 33.0455 23.7506 33.0242L27.7867 30.7242C27.9931 30.6085 28.1198 30.3917 28.1186 30.1573V24.5428L29.8243 25.5147C29.8427 25.5234 29.8547 25.5409 29.8573 25.5609V30.2104C29.8547 32.278 28.1578 33.9542 26.0625 33.9586ZM17.9017 30.5192C17.4564 29.7604 17.2961 28.871 17.4488 28.0079C17.4785 28.0254 17.5311 28.0572 17.5685 28.0785L21.6046 30.3785C21.8092 30.4967 22.0625 30.4967 22.2678 30.3785L27.1951 27.571V29.5148C27.1963 29.5348 27.1868 29.5541 27.171 29.5666L23.0912 31.8911C21.2739 32.9236 18.9531 32.3098 17.9023 30.5192H17.9017ZM16.8394 21.8259C17.2828 21.0658 17.9827 20.4846 18.8163 20.1827C18.8163 20.2171 18.8144 20.2777 18.8144 20.3202V24.9209C18.8131 25.1547 18.9398 25.3716 19.1457 25.4872L24.073 28.2941L22.3672 29.266C22.3501 29.2773 22.3286 29.2791 22.3096 29.271L18.2291 26.9447C16.4157 25.9084 15.7937 23.619 16.8388 21.8265L16.8394 21.8259ZM30.8543 25.0441L25.927 22.2365L27.6327 21.2652C27.6498 21.254 27.6714 21.2521 27.6904 21.2602L31.7708 23.5846C33.5874 24.6203 34.2101 26.9135 33.1605 28.706C32.7165 29.4648 32.0172 30.046 31.1843 30.3485V25.6103C31.1862 25.3766 31.0601 25.1603 30.8549 25.0441H30.8543ZM32.5518 22.5227C32.522 22.5046 32.4695 22.4734 32.4321 22.4521L28.396 20.1521C28.1914 20.0339 27.938 20.0339 27.7328 20.1521L22.8055 22.9596V21.0158C22.8043 20.9958 22.8138 20.9765 22.8296 20.964L26.9094 18.6414C28.7266 17.607 31.05 18.2227 32.0976 20.0164C32.5404 20.774 32.7006 21.6609 32.5505 22.5227H32.5518ZM21.8782 25.9872L20.1718 25.0153C20.1534 25.0066 20.1414 24.989 20.1389 24.969V20.3196C20.1401 18.2495 21.8421 16.572 23.94 16.5732C24.8274 16.5732 25.6863 16.8808 26.3685 17.4408C26.3374 17.457 26.2842 17.4864 26.2487 17.5076L22.2126 19.8077C22.0062 19.9233 21.8795 20.1396 21.8807 20.374L21.8782 25.9859V25.9872ZM22.8049 24.0159L24.9997 22.7653L27.1944 24.0153V26.516L24.9997 27.766L22.8049 26.516V24.0159Z" fill="white"/>
</g>
<defs>
<linearGradient id="paint0_linear_419_946" x1="5" y1="-21.2344" x2="54.4337" y2="15.8032" gradientUnits="userSpaceOnUse">
<stop stop-color="#16C9FA"/>
<stop offset="1" stop-color="#ED66FF"/>
</linearGradient>
<clipPath id="clip0_419_946">
<rect width="20" height="20" fill="white" transform="translate(15 15.2656)"/>
</clipPath>
</defs>
</svg>
