<svg width="50" height="51" viewBox="0 0 50 51" fill="none" xmlns="http://www.w3.org/2000/svg">
<rect y="0.265625" width="50" height="50" rx="10" fill="url(#paint0_linear_419_911)"/>
<g clip-path="url(#clip0_419_911)">
<path d="M17.4932 34.8642C16.8789 34.434 16.7296 33.5873 17.1597 32.973L26.1476 20.137C26.5778 19.5227 27.4245 19.3734 28.0388 19.8035L28.2612 19.9593C28.8756 20.3894 29.0249 21.2361 28.5947 21.8505L19.6068 34.6865C19.1767 35.3008 18.33 35.4501 17.7157 35.0199L17.4932 34.8642Z" fill="white"/>
<path d="M28.2612 34.8642C28.8756 34.434 29.0249 33.5873 28.5947 32.973L19.6068 20.137C19.1767 19.5227 18.33 19.3734 17.7157 19.8035L17.4932 19.9593C16.8789 20.3894 16.7296 21.2361 17.1597 21.8505L26.1476 34.6865C26.5778 35.3008 27.4245 35.4501 28.0388 35.0199L28.2612 34.8642Z" fill="white"/>
<path d="M30.0401 22.055C29.8901 22.055 29.7685 21.9334 29.7685 21.7834V20.7613C29.7685 20.6933 29.7941 20.6277 29.8401 20.5776L32.201 18.0079C32.3267 17.8755 32.4147 17.7588 32.465 17.658C32.5152 17.5571 32.5404 17.4342 32.5404 17.2892C32.5404 17.1064 32.4901 16.9582 32.3895 16.8448C32.289 16.725 32.1381 16.6651 31.937 16.6651C31.8679 16.6651 31.7956 16.6746 31.7202 16.6935C31.6447 16.7124 31.5756 16.7471 31.5127 16.7975C31.4562 16.8479 31.409 16.9141 31.3713 16.9961C31.3636 17.0128 31.3567 17.0306 31.3506 17.0495C31.3042 17.1921 31.1932 17.3176 31.0432 17.3176H30.0401C29.8901 17.3176 29.7666 17.1956 29.7823 17.0465C29.8054 16.8275 29.8574 16.6279 29.9382 16.4476C30.0577 16.1892 30.2148 15.9717 30.4097 15.7952C30.6108 15.6186 30.8402 15.4863 31.0979 15.398C31.3619 15.3098 31.6416 15.2656 31.937 15.2656C32.245 15.2656 32.531 15.3129 32.7949 15.4075C33.0589 15.502 33.2852 15.6376 33.4738 15.8141C33.6686 15.9843 33.8195 16.1955 33.9263 16.4476C34.0332 16.6998 34.0866 16.9835 34.0866 17.2987C34.0866 17.4752 34.0677 17.6359 34.03 17.7809C33.9986 17.9196 33.9452 18.052 33.8697 18.1781C33.8006 18.3041 33.7126 18.4302 33.6058 18.5563C33.5052 18.6824 33.3889 18.8148 33.2569 18.9535L32.0852 20.1978C31.922 20.3711 32.0449 20.6555 32.2829 20.6555H33.815C33.965 20.6555 34.0866 20.7771 34.0866 20.9271V21.7834C34.0866 21.9334 33.965 22.055 33.815 22.055H30.0401Z" fill="white"/>
</g>
<defs>
<linearGradient id="paint0_linear_419_911" x1="5" y1="-21.2344" x2="54.4337" y2="15.8032" gradientUnits="userSpaceOnUse">
<stop stop-color="#16C9FA"/>
<stop offset="1" stop-color="#ED66FF"/>
</linearGradient>
<clipPath id="clip0_419_911">
<rect width="20" height="20" fill="white" transform="translate(15 15.2656)"/>
</clipPath>
</defs>
</svg>
