<svg width="50" height="51" viewBox="0 0 50 51" fill="none" xmlns="http://www.w3.org/2000/svg">
<rect y="0.265625" width="50" height="50" rx="10" fill="url(#paint0_linear_419_922)"/>
<g clip-path="url(#clip0_419_922)">
<path fill-rule="evenodd" clip-rule="evenodd" d="M17.4293 18.8036C17.4283 18.1863 17.2448 17.3726 18.0945 17.3046C18.4007 17.2919 18.7129 17.3045 19.0199 17.3044L20.7538 17.3044C22.3663 17.3115 23.9655 17.9154 25.1085 19.0698C26.5903 17.5352 28.2563 17.3046 30.2454 17.3043L33.3439 17.3044C34.0333 17.3036 35.0738 17.034 35.0793 17.9278V31.7959C35.079 32.9765 34.891 32.9187 33.8985 32.9178L30.1009 32.9169C28.5264 32.9169 27.2879 32.9031 25.917 33.7875C25.2963 34.1879 25.1772 34.5396 24.5246 33.9595C23.2338 32.8124 21.6472 32.9173 20.0574 32.9171L15.9663 32.9181C14.9309 32.9198 14.9308 32.826 14.9306 31.8399L14.9219 19.3304C14.9214 18.6905 15.5719 18.8024 16.0024 18.8027L17.4293 18.8036ZM30.3511 18.4335C28.7068 18.4319 27.3363 18.4402 26.0573 19.7225C25.8157 19.9647 25.6628 20.0734 25.6642 20.4213L25.6674 32.5873C26.7461 32.1465 27.2703 31.8905 28.5246 31.7774H33.9384V18.4335H30.3511ZM18.5579 18.4335V31.7774L20.3426 31.7769C21.6556 31.7771 22.9508 31.7803 24.1446 32.4291C24.2773 32.5012 24.4032 32.5852 24.5362 32.6566C24.5939 32.5615 24.5365 32.3011 24.5362 32.1855L24.5365 21.3305C24.5367 20.9559 24.5558 20.5724 24.5362 20.1991C23.9761 19.3429 22.7595 18.7468 21.7974 18.5434C20.7274 18.3172 19.6359 18.4953 18.5579 18.4335ZM16.063 19.9335V31.7774H17.4293C17.4523 31.4665 17.4292 31.1358 17.4293 30.823L17.4288 20.7375C17.4287 20.4732 17.4099 20.196 17.4293 19.9335L16.5175 19.9324C16.3675 19.9322 16.2124 19.9234 16.063 19.9335Z" fill="white"/>
<path d="M25.0475 19.6643V33.3842L21.6041 32.3984L17.904 32.0878V17.9763H21.6041C21.7769 17.9763 23.9717 19.1017 25.0475 19.6643Z" fill="white"/>
</g>
<defs>
<linearGradient id="paint0_linear_419_922" x1="5" y1="-21.2344" x2="54.4337" y2="15.8032" gradientUnits="userSpaceOnUse">
<stop stop-color="#16C9FA"/>
<stop offset="1" stop-color="#ED66FF"/>
</linearGradient>
<clipPath id="clip0_419_922">
<rect width="20" height="20" fill="white" transform="translate(15 15.2656)"/>
</clipPath>
</defs>
</svg>
