<svg width="50" height="51" viewBox="0 0 50 51" fill="none" xmlns="http://www.w3.org/2000/svg">
<rect y="0.265625" width="50" height="50" rx="10" fill="url(#paint0_linear_419_930)"/>
<g clip-path="url(#clip0_419_930)">
<path fill-rule="evenodd" clip-rule="evenodd" d="M33.9969 16.2039H19.2268V31.3398H33.9969V16.2039ZM29.7557 21.4207C29.8477 21.4226 29.9407 21.4245 30.0306 21.418C30.9999 21.3071 31.0084 19.958 30.0793 19.8754C29.847 19.8547 29.5807 19.861 29.3251 19.867C29.2077 19.8697 29.0925 19.8724 28.9839 19.8724L23.4283 19.8709C23.3891 19.8709 23.3494 19.87 23.3094 19.8692C23.2191 19.8673 23.1278 19.8654 23.0398 19.8722C22.289 19.9091 22.0644 20.7784 22.5738 21.2292C22.8487 21.4726 23.4549 21.4465 23.9042 21.4271C24.0128 21.4224 24.1122 21.4181 24.1956 21.4182L29.6302 21.4189C29.6716 21.4189 29.7135 21.4198 29.7557 21.4207H29.7557ZM29.5954 24.4823C29.7924 24.4886 30.0058 24.4954 30.1666 24.4759C31.1062 24.0943 30.8572 22.9636 30.0329 22.9157C29.8172 22.9032 29.5988 22.9056 29.3814 22.9079L29.3814 22.9079C29.2973 22.9088 29.2133 22.9098 29.1297 22.9098L22.9291 22.9101C22.0626 23.1126 22.1242 24.4162 23.0579 24.4717C23.3905 24.4915 23.73 24.4859 24.0676 24.4804C24.2263 24.4778 24.3847 24.4752 24.5417 24.4753L29.3438 24.4766C29.4201 24.4767 29.506 24.4794 29.5953 24.4823H29.5954ZM24.0923 27.5518C24.0074 27.5518 23.9129 27.5539 23.814 27.5562C23.5141 27.5631 23.1727 27.5709 22.9282 27.5224C22.1339 27.3649 22.1182 26.1791 22.8691 26.0434C23.0265 26.0149 23.1891 26.0161 23.3496 26.0173C23.3829 26.0175 23.4161 26.0178 23.4491 26.0178L29.0816 26.0177C29.1567 26.0177 29.2464 26.0156 29.3431 26.0133L29.3433 26.0133C29.6364 26.0064 29.9935 25.998 30.2006 26.0422C30.771 26.1638 30.9286 26.9406 30.5378 27.3313C30.3109 27.5581 29.9984 27.5551 29.699 27.5523C29.6648 27.5519 29.6307 27.5516 29.597 27.5516L24.0923 27.5518Z" fill="white"/>
<path d="M17.9902 18.3L17.9805 16.0569C17.9784 15.1618 18.8224 15.2697 19.4472 15.2697L33.7683 15.2698C35.0395 15.2685 35.0084 15.6032 35.0073 16.6621L35.0064 30.3155C35.0066 30.9096 35.1926 31.9634 34.4695 32.1645C33.7885 32.354 32.7584 32.156 32.0315 32.2242L32.0089 32.2264C31.9954 32.7478 32.0096 33.2734 32.0103 33.7953C32.0125 35.2723 31.7265 35.2642 30.31 35.2647L16.2429 35.2644C15.8836 35.2643 15.5372 35.2971 15.251 35.0317C14.873 34.681 14.9954 33.5805 14.9958 33.0817L14.995 19.6138C14.9927 18.2379 15.2798 18.2993 16.4355 18.2992L17.9902 18.3ZM19.5138 16.8133L19.5137 29.1537C19.5137 29.6662 19.5001 30.1827 19.5138 30.6948H33.4266C33.4396 30.5116 33.4293 30.3231 33.428 30.1393L33.4266 16.8133H19.5138ZM16.5883 19.8722V33.6841H30.4135C30.5367 33.6597 30.4658 32.4748 30.4658 32.2264L19.9316 32.2262C19.1557 32.2263 17.9854 32.4689 17.9854 31.3234L17.9902 19.8722H16.5883Z" fill="white"/>
</g>
<defs>
<linearGradient id="paint0_linear_419_930" x1="5" y1="-21.2344" x2="54.4337" y2="15.8032" gradientUnits="userSpaceOnUse">
<stop stop-color="#16C9FA"/>
<stop offset="1" stop-color="#ED66FF"/>
</linearGradient>
<clipPath id="clip0_419_930">
<rect width="20" height="20" fill="white" transform="translate(15 15.2656)"/>
</clipPath>
</defs>
</svg>
