<svg width="50" height="51" viewBox="0 0 50 51" fill="none" xmlns="http://www.w3.org/2000/svg">
<rect y="0.265625" width="50" height="50" rx="10" fill="url(#paint0_linear_419_938)"/>
<g clip-path="url(#clip0_419_938)">
<path d="M29.6033 18.175C29.7823 18.0326 29.9337 17.8322 30.0979 17.6708L31.6428 16.1306C32.0777 15.6973 32.396 15.3289 33.0462 15.2697C34.079 15.2012 35.0044 15.9978 35.0083 17.0479C35.012 18.0284 34.1935 18.5471 33.5438 19.1826L32.0744 20.6472C31.9903 20.5681 31.9089 20.4859 31.8266 20.405C31.0918 19.6565 30.352 18.9095 29.6033 18.175Z" fill="white"/>
<path d="M19.3805 26.6976C19.7124 26.3119 20.0953 25.956 20.4558 25.5971L25.194 20.8399C26.1082 19.9279 27.0066 19.0003 27.9287 18.0961C28.0255 18.2409 28.3379 18.5082 28.4802 18.6495L31.9458 22.103C32.5641 22.7239 33.2016 23.3318 33.8006 23.9714C33.3277 24.3525 32.7675 25.018 32.3016 25.4586C32.0355 25.1393 31.6953 24.8506 31.395 24.5641C31.5874 24.3559 31.7962 24.1639 32.004 23.9714C31.7792 23.7186 31.5326 23.4797 31.2913 23.2425C30.856 23.7669 30.2501 24.2827 29.7641 24.7693L26.9585 27.5633C26.5884 27.9309 26.2123 28.2913 25.8459 28.6628L23.5925 30.9041C23.4218 30.6822 23.1882 30.4793 22.9902 30.2798L20.5628 27.8594C20.1773 27.4695 19.7989 27.0519 19.3805 26.6976Z" fill="white"/>
<path d="M14.9844 35.2656C15.1259 34.8091 15.3175 34.3586 15.4837 33.9096L17.1939 29.2764C17.467 28.5454 17.375 28.6241 17.9326 28.0807L18.6253 27.4039C18.7585 27.566 18.9101 27.7062 19.0579 27.8543L22.8777 31.651L21.9726 32.5551C21.2814 33.2389 21.2447 33.0365 20.3096 33.3536C19.588 33.5984 18.8738 33.8667 18.1569 34.125L15.9454 34.9205C15.6253 35.037 15.3024 35.1432 14.9844 35.2656ZM19.4372 30.1326C18.9398 30.6374 18.3277 31.1452 17.8623 31.651C18.0811 31.8893 18.3847 32.2028 18.6253 32.4104L19.3929 31.637C19.6195 31.4044 19.9055 31.0877 20.1693 30.9041C19.9447 30.6297 19.6609 30.4081 19.4372 30.1326Z" fill="white"/>
</g>
<defs>
<linearGradient id="paint0_linear_419_938" x1="5" y1="-21.2344" x2="54.4337" y2="15.8032" gradientUnits="userSpaceOnUse">
<stop stop-color="#16C9FA"/>
<stop offset="1" stop-color="#ED66FF"/>
</linearGradient>
<clipPath id="clip0_419_938">
<rect width="20" height="20" fill="white" transform="translate(15 15.2656)"/>
</clipPath>
</defs>
</svg>
