<svg width="9" height="9" viewBox="0 0 9 9" fill="none" xmlns="http://www.w3.org/2000/svg">
<path d="M2.76887 1.67831C3.36352 0.0712845 5.63648 0.0712845 6.23113 1.67831V1.67831C6.41809 2.18356 6.81644 2.58191 7.32169 2.76887V2.76887C8.92872 3.36352 8.92872 5.63648 7.32169 6.23113V6.23113C6.81644 6.41809 6.41809 6.81644 6.23113 7.32169V7.32169C5.63648 8.92872 3.36352 8.92872 2.76887 7.32169V7.32169C2.58191 6.81644 2.18356 6.41809 1.67831 6.23113V6.23113C0.0712845 5.63648 0.0712845 3.36352 1.67831 2.76887V2.76887C2.18356 2.58191 2.58191 2.18356 2.76887 1.67831V1.67831Z" fill="#6772B6"/>
</svg>
