<svg width="20" height="18" viewBox="0 0 20 18" fill="none" xmlns="http://www.w3.org/2000/svg">
<path d="M6.97599 2.35872C7.30891 1.51457 8.50359 1.51457 8.83651 2.35872L9.73564 4.63848C9.83729 4.89621 10.0413 5.10021 10.299 5.20186L12.5788 6.10099C13.4229 6.43391 13.4229 7.62859 12.5788 7.96151L10.299 8.86064C10.0413 8.96229 9.83729 9.16629 9.73564 9.42402L8.83651 11.7038C8.50359 12.5479 7.30891 12.5479 6.97599 11.7038L6.07686 9.42402C5.97521 9.16629 5.77121 8.96229 5.51348 8.86064L3.23372 7.96151C2.38957 7.62859 2.38957 6.43391 3.23372 6.10099L5.51348 5.20186C5.77121 5.10021 5.97521 4.89621 6.07686 4.63848L6.97599 2.35872Z" fill="white"/>
<path d="M14.0072 10.2337C14.3402 9.38957 15.5348 9.38957 15.8678 10.2337L16.21 11.1016C16.3117 11.3593 16.5157 11.5633 16.7734 11.665L17.6413 12.0072C18.4854 12.3402 18.4854 13.5348 17.6413 13.8678L16.7734 14.21C16.5157 14.3117 16.3117 14.5157 16.21 14.7734L15.8678 15.6413C15.5348 16.4854 14.3402 16.4854 14.0072 15.6413L13.665 14.7734C13.5633 14.5157 13.3593 14.3117 13.1016 14.21L12.2337 13.8678C11.3896 13.5348 11.3896 12.3402 12.2337 12.0072L13.1016 11.665C13.3593 11.5633 13.5633 11.3593 13.665 11.1016L14.0072 10.2337Z" fill="white"/>
</svg>
