<svg width="40" height="41" viewBox="0 0 40 41" fill="none" xmlns="http://www.w3.org/2000/svg">
<rect y="0.939941" width="40" height="40" rx="12" fill="url(#paint0_linear_204_461)"/>
<path d="M28.9886 19.6274L13.2386 10.6377C12.9731 10.4888 12.6686 10.4241 12.3655 10.4524C12.0624 10.4807 11.7751 10.6005 11.5417 10.7959C11.3083 10.9913 11.1399 11.2531 11.0589 11.5466C10.9778 11.84 10.988 12.1511 11.088 12.4386L13.9942 20.9202C13.9938 20.9233 13.9938 20.9265 13.9942 20.9296C13.9937 20.9327 13.9937 20.9358 13.9942 20.9389L11.088 29.4393C11.0079 29.6654 10.9832 29.9075 11.0161 30.1452C11.0489 30.3828 11.1383 30.6092 11.2767 30.8052C11.4151 31.0011 11.5985 31.1611 11.8115 31.2715C12.0245 31.382 12.2608 31.4397 12.5008 31.4399C12.7611 31.4392 13.0168 31.3714 13.2433 31.243L28.9848 22.2383C29.217 22.1083 29.4104 21.9187 29.5452 21.6892C29.68 21.4597 29.7513 21.1985 29.7518 20.9324C29.7522 20.6662 29.6819 20.4047 29.5479 20.1747C29.414 19.9447 29.2213 19.7545 28.9895 19.6236L28.9886 19.6274ZM12.5008 29.9399V29.9314L15.3264 21.6899H20.7508C20.9497 21.6899 21.1405 21.6109 21.2811 21.4702C21.4218 21.3296 21.5008 21.1388 21.5008 20.9399C21.5008 20.741 21.4218 20.5502 21.2811 20.4096C21.1405 20.2689 20.9497 20.1899 20.7508 20.1899H15.3339L12.5064 11.9511L12.5008 11.9399L28.2508 20.9239L12.5008 29.9399Z" fill="#7625E1"/>
<defs>
<linearGradient id="paint0_linear_204_461" x1="40" y1="20.9399" x2="0" y2="20.9399" gradientUnits="userSpaceOnUse">
<stop offset="0.0839999" stop-color="#ED66FF"/>
<stop offset="0.679" stop-color="#298DEF"/>
<stop offset="1" stop-color="#15CDFB"/>
</linearGradient>
</defs>
</svg>
