<svg width="40" height="40" viewBox="0 0 40 40" fill="none" xmlns="http://www.w3.org/2000/svg">
<rect width="40" height="40" rx="12" fill="url(#paint0_linear_488_757)"/>
<path d="M28.9886 18.6873L13.2386 9.69763C12.9731 9.54871 12.6686 9.48408 12.3655 9.51234C12.0624 9.54059 11.7751 9.6604 11.5417 9.85583C11.3083 10.0513 11.1399 10.3131 11.0589 10.6065C10.9778 10.8999 10.988 11.2111 11.088 11.4986L13.9942 19.9801C13.9938 19.9832 13.9938 19.9864 13.9942 19.9895C13.9937 19.9926 13.9937 19.9958 13.9942 19.9989L11.088 28.4992C11.0079 28.7254 10.9832 28.9674 11.0161 29.2051C11.0489 29.4428 11.1383 29.6691 11.2767 29.8651C11.4151 30.0611 11.5985 30.221 11.8115 30.3314C12.0245 30.4419 12.2608 30.4996 12.5008 30.4998C12.7611 30.4992 13.0168 30.4313 13.2433 30.3029L28.9848 21.2983C29.217 21.1682 29.4104 20.9787 29.5452 20.7492C29.68 20.5197 29.7513 20.2584 29.7518 19.9923C29.7522 19.7261 29.6819 19.4647 29.5479 19.2347C29.414 19.0047 29.2213 18.8145 28.9895 18.6836L28.9886 18.6873ZM12.5008 28.9998V28.9914L15.3264 20.7498H20.7508C20.9497 20.7498 21.1405 20.6708 21.2811 20.5302C21.4218 20.3895 21.5008 20.1987 21.5008 19.9998C21.5008 19.8009 21.4218 19.6101 21.2811 19.4695C21.1405 19.3288 20.9497 19.2498 20.7508 19.2498H15.3339L12.5064 11.0111L12.5008 10.9998L28.2508 19.9839L12.5008 28.9998Z" fill="white"/>
<defs>
<linearGradient id="paint0_linear_488_757" x1="40" y1="20" x2="0" y2="20" gradientUnits="userSpaceOnUse">
<stop offset="0.0839999" stop-color="#ED66FF"/>
<stop offset="0.679" stop-color="#298DEF"/>
<stop offset="1" stop-color="#15CDFB"/>
</linearGradient>
</defs>
</svg>
