<svg width="34" height="34" viewBox="0 0 34 34" fill="none" xmlns="http://www.w3.org/2000/svg">
<rect width="34" height="34" rx="12" fill="url(#paint0_linear_488_250)"/>
<path d="M21.7813 17.5543L16.0115 23.324C15.3786 23.9569 14.5201 24.3125 13.625 24.3125C12.7299 24.3125 11.8715 23.9569 11.2385 23.324C10.6056 22.6911 10.25 21.8326 10.25 20.9375C10.25 20.0424 10.6056 19.1839 11.2385 18.551L19.4435 10.346C19.6525 10.1371 19.9006 9.97142 20.1737 9.8584C20.4467 9.74538 20.7393 9.68725 21.0348 9.68732C21.3303 9.68739 21.6229 9.74566 21.8959 9.85881C22.1689 9.97195 22.4169 10.1378 22.6258 10.3468C22.8347 10.5558 23.0004 10.8039 23.1134 11.0769C23.2264 11.3499 23.2845 11.6425 23.2845 11.938C23.2844 12.2335 23.2261 12.5261 23.113 12.7991C22.9998 13.0721 22.834 13.3201 22.625 13.529L14.414 21.74C14.201 21.9442 13.9163 22.0558 13.6212 22.0521C13.3262 22.0483 13.0444 21.9288 12.8366 21.7193C12.6289 21.5097 12.5117 21.2269 12.5105 20.9319C12.5093 20.6368 12.624 20.353 12.83 20.1418L18.6875 14.2843M14.4208 21.7325L14.4133 21.74" stroke="white" stroke-linecap="round" stroke-linejoin="round"/>
<defs>
<linearGradient id="paint0_linear_488_250" x1="34" y1="17" x2="0" y2="17" gradientUnits="userSpaceOnUse">
<stop offset="0.0839999" stop-color="#ED66FF"/>
<stop offset="0.679" stop-color="#298DEF"/>
<stop offset="1" stop-color="#15CDFB"/>
</linearGradient>
</defs>
</svg>
