<svg width="15" height="16" viewBox="0 0 15 16" fill="none" xmlns="http://www.w3.org/2000/svg">
<path d="M12.7813 8.55426L7.01152 14.324C6.37858 14.9569 5.52013 15.3125 4.62502 15.3125C3.72991 15.3125 2.87146 14.9569 2.23852 14.324C1.60558 13.6911 1.25 12.8326 1.25 11.9375C1.25 11.0424 1.60558 10.1839 2.23852 9.55101L10.4435 1.34601C10.6525 1.13711 10.9006 0.971418 11.1737 0.8584C11.4467 0.745381 11.7393 0.687247 12.0348 0.687317C12.3303 0.687387 12.6229 0.745658 12.8959 0.858805C13.1689 0.971952 13.4169 1.13776 13.6258 1.34676C13.8347 1.55576 14.0004 1.80385 14.1134 2.07689C14.2264 2.34992 14.2845 2.64254 14.2845 2.93804C14.2844 3.23354 14.2261 3.52613 14.113 3.79911C13.9998 4.07209 13.834 4.32011 13.625 4.52901L5.41402 12.74C5.20101 12.9442 4.91629 13.0558 4.62123 13.0521C4.32617 13.0483 4.04439 12.9288 3.83662 12.7193C3.62885 12.5097 3.51173 12.2269 3.51049 11.9319C3.50926 11.6368 3.62401 11.353 3.83002 11.1418L9.68752 5.28426M5.42077 12.7325L5.41327 12.74" stroke="#1C1C1C" stroke-linecap="round" stroke-linejoin="round"/>
</svg>
