<svg width="235" height="48" viewBox="0 0 235 48" fill="none" xmlns="http://www.w3.org/2000/svg">
<path d="M45.2854 19.6447C45.6988 18.4266 45.9096 17.1513 45.9098 15.8674C45.9097 13.7431 45.3327 11.6571 44.2382 9.8239C42.0388 6.06949 37.9591 3.75155 33.5436 3.75155C32.6738 3.75157 31.8063 3.84167 30.9557 4.02035C29.8118 2.75625 28.4075 1.74433 26.8355 1.05135C25.2636 0.358364 23.5596 3.69458e-05 21.8363 0H21.7588L21.7298 0.000167485C16.3819 0.000167485 11.6393 3.3844 9.99536 8.3735C8.29364 8.71532 6.68599 9.40971 5.28005 10.4102C3.87412 11.4107 2.70234 12.6941 1.84314 14.1747C0.751962 16.0189 0.176937 18.1131 0.17627 20.2454C0.176687 23.2419 1.31091 26.1318 3.35931 28.3553C2.94581 29.5734 2.73494 30.8488 2.73477 32.1326C2.73495 34.2569 3.31194 36.3429 4.40643 38.1761C5.70795 40.3985 7.69557 42.1581 10.0826 43.2011C12.4697 44.2442 15.1329 44.5168 17.6881 43.9795C18.8323 45.2435 20.2367 46.2555 21.8087 46.9485C23.3807 47.6416 25.0847 47.9999 26.8084 48H26.8857L26.9172 47.9999C32.2679 47.9999 37.0089 44.6155 38.6529 39.6218C40.3547 39.2798 41.9623 38.5854 43.3682 37.585C44.7742 36.5845 45.946 35.301 46.8053 33.8205C47.8953 31.9779 48.4692 29.8854 48.4689 27.7552C48.4685 24.7587 47.3337 21.8681 45.2854 19.6447ZM26.8888 44.8619H26.8761C24.7351 44.8612 22.662 44.1246 21.0175 42.7802C21.115 42.7286 21.2116 42.675 21.3069 42.6192L31.0521 37.0988C31.2954 36.963 31.4975 36.7665 31.6383 36.5293C31.7789 36.2921 31.8532 36.0226 31.8532 35.7482V22.2649L35.9723 24.5975C35.9939 24.6081 36.0125 24.6237 36.0265 24.6431C36.0405 24.6624 36.0494 24.6847 36.0525 24.7083V35.8666C36.0468 40.8275 31.9478 44.8519 26.8888 44.8619ZM7.1821 36.6076C6.37712 35.2426 5.95303 33.6938 5.95249 32.1168C5.95249 31.6026 5.99828 31.0869 6.08747 30.5802C6.15992 30.6227 6.28638 30.6986 6.37711 30.7497L16.1224 36.2701C16.3654 36.4093 16.6417 36.4826 16.9229 36.4824C17.2043 36.4824 17.4806 36.409 17.7235 36.2698L29.6215 29.5323V34.1975L29.6216 34.2055C29.6216 34.228 29.6162 34.2501 29.6061 34.2703C29.5958 34.2904 29.5809 34.3079 29.5626 34.3213L19.711 39.8997C18.3172 40.6865 16.7371 41.1007 15.1287 41.1011C13.5187 41.101 11.937 40.6857 10.5423 39.8969C9.14756 39.1082 7.98875 37.9742 7.1821 36.6076ZM4.6183 15.7432C5.68865 13.92 7.3787 12.524 9.3927 11.7995C9.3927 11.8817 9.38791 12.0275 9.38791 12.1287V23.1699L9.38774 23.1789C9.38778 23.4531 9.4618 23.7223 9.60229 23.9594C9.74277 24.1964 9.94471 24.3928 10.1876 24.5284L22.0856 31.265L17.9666 33.5975C17.9463 33.6106 17.923 33.6185 17.8987 33.6208C17.8746 33.6229 17.8502 33.6191 17.8277 33.6098L7.97511 28.0268C6.58231 27.2355 5.42603 26.0992 4.62214 24.7314C3.81827 23.3639 3.39502 21.813 3.39485 20.2344C3.39546 18.6583 3.81699 17.1093 4.6183 15.7432ZM38.4607 23.4666L26.5627 16.7294L30.6818 14.3977C30.7022 14.3846 30.7255 14.3766 30.7497 14.3745C30.774 14.3722 30.7984 14.376 30.8207 14.3853L40.6732 19.9636C42.0672 20.7537 43.2247 21.8896 44.0295 23.257C44.8344 24.6244 45.2583 26.1755 45.2586 27.7545C45.2586 31.5232 42.8607 34.8953 39.2553 36.1968V24.8256C39.2558 24.8214 39.2558 24.817 39.2558 24.8129C39.2558 24.5397 39.1822 24.2713 39.0426 24.035C38.903 23.7987 38.7022 23.6026 38.4607 23.4666ZM42.5604 17.4153C42.4647 17.3578 42.3681 17.3013 42.271 17.2461L32.5257 11.7254C32.2828 11.5865 32.0066 11.5133 31.7254 11.5132C31.4442 11.5133 31.168 11.5865 30.9251 11.7254L19.0269 18.4628V13.7976L19.0267 13.7896C19.0267 13.744 19.0487 13.7011 19.0859 13.6738L28.9375 8.10019C30.3309 7.31232 31.9111 6.89756 33.5196 6.89749C38.5849 6.89749 42.6927 10.926 42.6927 15.8937C42.6926 16.4034 42.6482 16.9128 42.5604 17.4153ZM16.7874 25.7301L12.6675 23.3976C12.6459 23.387 12.6272 23.3715 12.6133 23.3521C12.5993 23.3328 12.5904 23.3104 12.5873 23.2869V12.1284C12.5896 7.16342 16.6973 3.13823 21.7606 3.13823C23.9049 3.13865 25.9815 3.87538 27.6299 5.22054C27.5558 5.26025 27.4264 5.3303 27.3405 5.38141L17.5952 10.9019C17.3519 11.0376 17.1498 11.234 17.0092 11.4711C16.8684 11.7083 16.7943 11.9777 16.7943 12.2521V12.261L16.7874 25.7301ZM19.025 20.999L24.3241 17.9973L29.6233 20.9969V26.9982L24.3241 29.998L19.025 26.9982V20.999Z" fill="#1C1C1C"/>
<path d="M62.1943 36.7059V12.0641H66.6582V22.496H78.0767V12.0641H82.5527V36.7059H78.0767V26.2379H66.6582V36.7059H62.1943ZM94.0734 37.0307C92.6215 37.0307 91.322 36.6577 90.175 35.9117C89.0279 35.1658 88.1215 34.0828 87.4558 32.6631C86.79 31.2433 86.4571 29.5187 86.4571 27.4893C86.4571 25.4357 86.7939 23.7032 87.4678 22.2914C88.1496 20.8716 89.068 19.8008 90.2231 19.0788C91.3782 18.3489 92.6656 17.9839 94.0854 17.9839C95.1682 17.9839 96.0586 18.1684 96.7565 18.5374C97.4544 18.8984 98.0079 19.3355 98.417 19.8489C98.8261 20.3542 99.1429 20.8315 99.3675 21.2808H99.548V18.2246H103.916V36.7059H99.6322V33.7941H99.3675C99.1429 34.2433 98.8181 34.7205 98.3928 35.2259C97.9678 35.7233 97.4063 36.1483 96.7085 36.5013C96.0105 36.8542 95.1322 37.0307 94.0734 37.0307ZM95.2887 33.4572C96.2111 33.4572 96.9972 33.2085 97.6469 32.7113C98.2967 32.2058 98.79 31.5039 99.1268 30.6056C99.4638 29.7072 99.6322 28.6603 99.6322 27.4651C99.6322 26.2701 99.4638 25.2313 99.1268 24.349C98.798 23.4666 98.3087 22.7808 97.6589 22.2914C97.0172 21.8021 96.2271 21.5575 95.2887 21.5575C94.3181 21.5575 93.5079 21.8102 92.8582 22.3154C92.2085 22.8209 91.7191 23.5187 91.3902 24.4091C91.0614 25.2995 90.8969 26.3181 90.8969 27.4651C90.8969 28.6202 91.0614 29.651 91.3902 30.5575C91.727 31.4558 92.2205 32.1658 92.8702 32.6871C93.5279 33.2004 94.334 33.4572 95.2887 33.4572ZM111.264 43.6363C110.671 43.6363 110.121 43.5882 109.616 43.4919C109.118 43.4037 108.721 43.2995 108.425 43.1791L109.435 39.786C110.069 39.9706 110.635 40.0588 111.132 40.0507C111.629 40.0427 112.066 39.8863 112.443 39.5815C112.828 39.2847 113.153 38.7874 113.418 38.0895L113.791 37.0908L107.089 18.2246H111.709L115.969 32.1818H116.161L120.433 18.2246H125.065L117.665 38.9438C117.32 39.9224 116.863 40.7607 116.294 41.4586C115.724 42.1644 115.026 42.7019 114.2 43.0708C113.382 43.4479 112.403 43.6363 111.264 43.6363ZM128.079 36.7059V18.2246H132.435V25.6845H134.023L139.582 18.2246H144.828L137.981 27.2967L144.9 36.7059H139.63L134.564 29.7392H132.435V36.7059H128.079ZM153.466 37.0307C152.015 37.0307 150.716 36.6577 149.568 35.9117C148.422 35.1658 147.514 34.0828 146.849 32.6631C146.183 31.2433 145.851 29.5187 145.851 27.4893C145.851 25.4357 146.187 23.7032 146.861 22.2914C147.542 20.8716 148.462 19.8008 149.616 19.0788C150.771 18.3489 152.059 17.9839 153.479 17.9839C154.562 17.9839 155.453 18.1684 156.15 18.5374C156.847 18.8984 157.401 19.3355 157.81 19.8489C158.22 20.3542 158.536 20.8315 158.76 21.2808H158.941V18.2246H163.309V36.7059H159.026V33.7941H158.76C158.536 34.2433 158.211 34.7205 157.786 35.2259C157.361 35.7233 156.799 36.1483 156.102 36.5013C155.405 36.8542 154.525 37.0307 153.466 37.0307ZM154.682 33.4572C155.605 33.4572 156.39 33.2085 157.041 32.7113C157.69 32.2058 158.183 31.5039 158.52 30.6056C158.858 29.7072 159.026 28.6603 159.026 27.4651C159.026 26.2701 158.858 25.2313 158.52 24.349C158.191 23.4666 157.702 22.7808 157.052 22.2914C156.411 21.8021 155.621 21.5575 154.682 21.5575C153.712 21.5575 152.902 21.8102 152.252 22.3154C151.601 22.8209 151.113 23.5187 150.784 24.4091C150.455 25.2995 150.29 26.3181 150.29 27.4651C150.29 28.6202 150.455 29.651 150.784 30.5575C151.12 31.4558 151.614 32.1658 152.263 32.6871C152.921 33.2004 153.727 33.4572 154.682 33.4572ZM184.651 19.9331C184.45 19.2834 184.174 18.7019 183.821 18.1884C183.476 17.6671 183.058 17.2219 182.57 16.8529C182.088 16.4839 181.535 16.2072 180.91 16.0226C180.283 15.8302 179.601 15.7339 178.864 15.7339C177.54 15.7339 176.361 16.0668 175.326 16.7326C174.291 17.3984 173.477 18.3769 172.884 19.6684C172.298 20.9518 172.006 22.5161 172.006 24.361C172.006 26.2219 172.298 27.798 172.884 29.0895C173.47 30.381 174.283 31.3636 175.326 32.0374C176.369 32.7032 177.581 33.0361 178.96 33.0361C180.211 33.0361 181.294 32.7954 182.208 32.3141C183.13 31.8329 183.84 31.151 184.339 30.2686C184.836 29.3784 185.084 28.3355 185.084 27.1403L186.095 27.2967H179.405V23.8074H189.404V26.7673C189.404 28.8769 188.954 30.7019 188.056 32.242C187.158 33.7821 185.923 34.9692 184.35 35.8034C182.777 36.6296 180.973 37.0427 178.936 37.0427C176.666 37.0427 174.672 36.5333 172.956 35.5146C171.247 34.488 169.912 33.032 168.949 31.147C167.995 29.254 167.518 27.008 167.518 24.4091C167.518 22.4198 167.798 20.6431 168.359 19.0788C168.929 17.5146 169.723 16.1871 170.742 15.0962C171.76 13.9973 172.956 13.1631 174.328 12.5935C175.699 12.016 177.191 11.7272 178.803 11.7272C180.167 11.7272 181.439 11.9278 182.618 12.3288C183.797 12.7219 184.844 13.2834 185.758 14.0133C186.681 14.7433 187.439 15.6096 188.032 16.6122C188.626 17.615 189.014 18.7219 189.199 19.9331H184.651ZM193.72 36.7059V12.0641H202.961C204.854 12.0641 206.443 12.4171 207.726 13.1229C209.016 13.8288 209.992 14.7995 210.65 16.0348C211.315 17.262 211.648 18.6577 211.648 20.2219C211.648 21.8021 211.315 23.2058 210.65 24.4331C209.983 25.6603 209.001 26.627 207.702 27.3329C206.402 28.0307 204.802 28.3797 202.901 28.3797H196.776V24.7098H202.299C203.406 24.7098 204.312 24.5174 205.018 24.1324C205.724 23.7473 206.245 23.2178 206.582 22.5442C206.927 21.8703 207.099 21.0962 207.099 20.2219C207.099 19.3475 206.927 18.5775 206.582 17.9117C206.245 17.2459 205.72 16.7285 205.006 16.3596C204.3 15.9825 203.39 15.7941 202.275 15.7941H198.184V36.7059H193.72ZM214.442 15.8061V12.0641H234.103V15.8061H226.487V36.7059H222.058V15.8061H214.442Z" fill="black"/>
</svg>
