<svg width="20" height="20" viewBox="0 0 20 20" fill="none" xmlns="http://www.w3.org/2000/svg">
<path fill-rule="evenodd" clip-rule="evenodd" d="M9.67769 3.51304L8.41662 6.92103C8.06212 7.87905 7.30678 8.63438 6.34876 8.98888L2.94077 10.25L6.34876 11.511C7.30678 11.8655 8.06212 12.6209 8.41662 13.5789L9.67769 16.9869L10.9388 13.5789C11.2933 12.6209 12.0486 11.8655 13.0066 11.511L16.4146 10.25L13.0066 8.98888C12.0486 8.63438 11.2933 7.87905 10.9388 6.92103L9.67769 3.51304ZM11.0845 1.55171C10.6012 0.245784 8.75415 0.245784 8.27091 1.55171L6.54091 6.22696C6.38899 6.63754 6.06527 6.96125 5.65469 7.11318L0.979445 8.84318C-0.326482 9.32641 -0.326482 11.1735 0.979446 11.6567L5.65469 13.3867C6.06527 13.5387 6.38899 13.8624 6.54091 14.273L8.27091 18.9482C8.75415 20.2541 10.6012 20.2541 11.0845 18.9482L12.8145 14.273C12.9664 13.8624 13.2901 13.5387 13.7007 13.3867L18.3759 11.6567C19.6819 11.1735 19.6819 9.32641 18.3759 8.84318L13.7007 7.11318C13.2901 6.96125 12.9664 6.63754 12.8145 6.22696L11.0845 1.55171Z" fill="#FECA3F"/>
</svg>
