<svg width="25" height="26" viewBox="0 0 25 26" fill="none" xmlns="http://www.w3.org/2000/svg">
<path fill-rule="evenodd" clip-rule="evenodd" d="M10.547 5.49497L9.56181 8.26396C9.28486 9.04235 8.69475 9.65606 7.9463 9.94409L5.28381 10.9687L7.9463 11.9933C8.69475 12.2814 9.28486 12.8951 9.56181 13.6735L10.547 16.4425L11.5322 13.6735C11.8092 12.8951 12.3993 12.2814 13.1477 11.9933L15.8102 10.9687L13.1477 9.94409C12.3993 9.65606 11.8092 9.04235 11.5322 8.26396L10.547 5.49497ZM11.6461 3.90139C11.2685 2.84032 9.82551 2.84032 9.44798 3.90139L8.09642 7.70003C7.97772 8.03362 7.72482 8.29664 7.40406 8.42008L3.75152 9.82571C2.73126 10.2183 2.73126 11.7191 3.75152 12.1117L7.40406 13.5173C7.72482 13.6408 7.97772 13.9038 8.09642 14.2374L9.44798 18.036C9.82551 19.0971 11.2685 19.0971 11.6461 18.036L12.9976 14.2374C13.1163 13.9038 13.3692 13.6408 13.69 13.5173L17.3425 12.1117C18.3628 11.7191 18.3628 10.2183 17.3425 9.82571L13.69 8.42008C13.3692 8.29664 13.1163 8.03362 12.9976 7.70003L11.6461 3.90139Z" fill="url(#paint0_linear_204_1032)"/>
<path fill-rule="evenodd" clip-rule="evenodd" d="M18.3594 16.5119L18.0005 17.5205C17.8027 18.0764 17.3812 18.5148 16.8466 18.7205L15.8768 19.0938L16.8466 19.467C17.3812 19.6727 17.8027 20.1111 18.0005 20.6671L18.3594 21.6756L18.7182 20.6671C18.916 20.1111 19.3375 19.6727 19.8722 19.467L20.8419 19.0938L19.8722 18.7205C19.3375 18.5148 18.916 18.0764 18.7182 17.5205L18.3594 16.5119ZM19.0921 15.0593C18.8404 14.3519 17.8784 14.3519 17.6267 15.0593L16.9015 17.0975C16.8223 17.3199 16.6537 17.4952 16.4399 17.5775L14.4801 18.3317C13.7999 18.5935 13.7999 19.594 14.4801 19.8558L16.4399 20.61C16.6537 20.6923 16.8223 20.8676 16.9015 21.09L17.6267 23.1282C17.8784 23.8356 18.8404 23.8356 19.0921 23.1282L19.8173 21.09C19.8964 20.8676 20.065 20.6923 20.2788 20.61L22.2387 19.8558C22.9188 19.594 22.9188 18.5935 22.2387 18.3317L20.2788 17.5775C20.065 17.4952 19.8964 17.3199 19.8173 17.0975L19.0921 15.0593Z" fill="url(#paint1_linear_204_1032)"/>
<defs>
<linearGradient id="paint0_linear_204_1032" x1="22.7488" y1="13.3822" x2="2.98633" y2="13.3822" gradientUnits="userSpaceOnUse">
<stop offset="0.0839999" stop-color="#ED66FF"/>
<stop offset="0.679" stop-color="#298DEF"/>
<stop offset="1" stop-color="#15CDFB"/>
</linearGradient>
<linearGradient id="paint1_linear_204_1032" x1="22.7488" y1="13.3822" x2="2.98633" y2="13.3822" gradientUnits="userSpaceOnUse">
<stop offset="0.0839999" stop-color="#ED66FF"/>
<stop offset="0.679" stop-color="#298DEF"/>
<stop offset="1" stop-color="#15CDFB"/>
</linearGradient>
</defs>
</svg>
