<svg width="21" height="21" viewBox="0 0 21 21" fill="none" xmlns="http://www.w3.org/2000/svg">
<path fill-rule="evenodd" clip-rule="evenodd" d="M8.24722 2.49497L7.262 5.26396C6.98505 6.04235 6.39495 6.65606 5.6465 6.94409L2.984 7.96871L5.6465 8.99333C6.39495 9.28136 6.98505 9.89507 7.262 10.6735L8.24722 13.4425L9.23243 10.6735C9.50938 9.89507 10.0995 9.28136 10.8479 8.99333L13.5104 7.96871L10.8479 6.94409C10.0995 6.65606 9.50938 6.04235 9.23243 5.26396L8.24722 2.49497ZM9.34626 0.90139C8.96873 -0.159676 7.5257 -0.159676 7.14817 0.90139L5.79661 4.70003C5.67792 5.03362 5.42502 5.29664 5.10425 5.42008L1.45171 6.82571C0.431459 7.21834 0.43146 8.71909 1.45172 9.11172L5.10425 10.5173C5.42502 10.6408 5.67792 10.9038 5.79661 11.2374L7.14817 15.036C7.5257 16.0971 8.96873 16.0971 9.34626 15.036L10.6978 11.2374C10.8165 10.9038 11.0694 10.6408 11.3902 10.5173L15.0427 9.11172C16.063 8.71909 16.063 7.21834 15.0427 6.82571L11.3902 5.42008C11.0694 5.29664 10.8165 5.03362 10.6978 4.70003L9.34626 0.90139Z" fill="white"/>
<path fill-rule="evenodd" clip-rule="evenodd" d="M16.0596 13.5119L15.7007 14.5205C15.5029 15.0764 15.0814 15.5148 14.5468 15.7205L13.577 16.0938L14.5468 16.467C15.0814 16.6727 15.5029 17.1111 15.7007 17.6671L16.0596 18.6756L16.4184 17.6671C16.6162 17.1111 17.0377 16.6727 17.5724 16.467L18.5421 16.0938L17.5724 15.7205C17.0377 15.5148 16.6162 15.0764 16.4184 14.5205L16.0596 13.5119ZM16.7923 12.0593C16.5406 11.3519 15.5786 11.3519 15.3269 12.0593L14.6017 14.0975C14.5225 14.3199 14.3539 14.4952 14.1401 14.5775L12.1803 15.3317C11.5001 15.5935 11.5001 16.594 12.1803 16.8558L14.1401 17.61C14.3539 17.6923 14.5225 17.8676 14.6017 18.09L15.3269 20.1282C15.5786 20.8356 16.5406 20.8356 16.7923 20.1282L17.5175 18.09C17.5966 17.8676 17.7652 17.6923 17.979 17.61L19.9389 16.8558C20.619 16.594 20.619 15.5935 19.9389 15.3317L17.979 14.5775C17.7652 14.4952 17.5966 14.3199 17.5175 14.0975L16.7923 12.0593Z" fill="white"/>
</svg>
