<svg width="26" height="26" viewBox="0 0 26 26" fill="none" xmlns="http://www.w3.org/2000/svg">
<path fill-rule="evenodd" clip-rule="evenodd" d="M11.2472 5.49497L10.262 8.26396C9.98505 9.04235 9.39495 9.65606 8.6465 9.94409L5.984 10.9687L8.6465 11.9933C9.39495 12.2814 9.98505 12.8951 10.262 13.6735L11.2472 16.4425L12.2324 13.6735C12.5094 12.8951 13.0995 12.2814 13.8479 11.9933L16.5104 10.9687L13.8479 9.94409C13.0995 9.65606 12.5094 9.04235 12.2324 8.26396L11.2472 5.49497ZM12.3463 3.90139C11.9687 2.84032 10.5257 2.84032 10.1482 3.90139L8.79661 7.70003C8.67792 8.03362 8.42502 8.29664 8.10425 8.42008L4.45171 9.82571C3.43146 10.2183 3.43146 11.7191 4.45172 12.1117L8.10425 13.5173C8.42502 13.6408 8.67792 13.9038 8.79661 14.2374L10.1482 18.036C10.5257 19.0971 11.9687 19.0971 12.3463 18.036L13.6978 14.2374C13.8165 13.9038 14.0694 13.6408 14.3902 13.5173L18.0427 12.1117C19.063 11.7191 19.063 10.2183 18.0427 9.82571L14.3902 8.42008C14.0694 8.29664 13.8165 8.03362 13.6978 7.70003L12.3463 3.90139Z" fill="white"/>
<path fill-rule="evenodd" clip-rule="evenodd" d="M19.0596 16.5119L18.7007 17.5205C18.5029 18.0764 18.0814 18.5148 17.5468 18.7205L16.577 19.0938L17.5468 19.467C18.0814 19.6727 18.5029 20.1111 18.7007 20.6671L19.0596 21.6756L19.4184 20.6671C19.6162 20.1111 20.0377 19.6727 20.5724 19.467L21.5421 19.0938L20.5724 18.7205C20.0377 18.5148 19.6162 18.0764 19.4184 17.5205L19.0596 16.5119ZM19.7923 15.0593C19.5406 14.3519 18.5786 14.3519 18.3269 15.0593L17.6017 17.0975C17.5225 17.3199 17.3539 17.4952 17.1401 17.5775L15.1803 18.3317C14.5001 18.5935 14.5001 19.594 15.1803 19.8558L17.1401 20.61C17.3539 20.6923 17.5225 20.8676 17.6017 21.09L18.3269 23.1282C18.5786 23.8356 19.5406 23.8356 19.7923 23.1282L20.5175 21.09C20.5966 20.8676 20.7652 20.6923 20.979 20.61L22.9389 19.8558C23.619 19.594 23.619 18.5935 22.9389 18.3317L20.979 17.5775C20.7652 17.4952 20.5966 17.3199 20.5175 17.0975L19.7923 15.0593Z" fill="white"/>
</svg>
