<svg width="294" height="49" viewBox="0 0 294 49" fill="none" xmlns="http://www.w3.org/2000/svg">
<g clip-path="url(#clip0_204_450)">
<path d="M45.2854 20.5847C45.6988 19.3666 45.9096 18.0912 45.9098 16.8073C45.9097 14.683 45.3327 12.597 44.2382 10.7638C42.0388 7.00943 37.9591 4.6915 33.5436 4.6915C32.6738 4.69151 31.8063 4.78161 30.9557 4.9603C29.8118 3.69619 28.4075 2.68428 26.8355 1.99129C25.2636 1.29831 23.5596 0.939978 21.8363 0.939941H21.7588L21.7298 0.940109C16.3819 0.940109 11.6393 4.32434 9.99536 9.31345C8.29364 9.65526 6.68599 10.3497 5.28005 11.3501C3.87412 12.3506 2.70234 13.6341 1.84314 15.1146C0.751962 16.9588 0.176937 19.053 0.17627 21.1854C0.176687 24.1818 1.31091 27.0717 3.35931 29.2952C2.94581 30.5133 2.73494 31.7887 2.73477 33.0726C2.73495 35.1968 3.31194 37.2829 4.40643 39.1161C5.70795 41.3385 7.69557 43.0981 10.0826 44.1411C12.4697 45.1841 15.1329 45.4567 17.6881 44.9194C18.8323 46.1835 20.2367 47.1954 21.8087 47.8885C23.3807 48.5815 25.0847 48.9398 26.8084 48.94H26.8857L26.9172 48.9398C32.2679 48.9398 37.0089 45.5554 38.6529 40.5617C40.3547 40.2198 41.9623 39.5253 43.3682 38.5249C44.7742 37.5244 45.946 36.241 46.8053 34.7605C47.8953 32.9178 48.4692 30.8253 48.4689 28.6951C48.4685 25.6986 47.3337 22.808 45.2854 20.5847ZM26.8888 45.8019H26.8761C24.7351 45.8012 22.662 45.0645 21.0175 43.7201C21.115 43.6686 21.2116 43.6149 21.3069 43.5592L31.0521 38.0387C31.2954 37.9029 31.4975 37.7064 31.6383 37.4692C31.7789 37.232 31.8532 36.9625 31.8532 36.6881V23.2049L35.9723 25.5374C35.9939 25.548 36.0125 25.5637 36.0265 25.583C36.0405 25.6024 36.0494 25.6247 36.0525 25.6482V36.8065C36.0468 41.7675 31.9478 45.7919 26.8888 45.8019ZM7.1821 37.5476C6.37712 36.1825 5.95303 34.6337 5.95249 33.0568C5.95249 32.5426 5.99828 32.0269 6.08747 31.5202C6.15992 31.5627 6.28638 31.6385 6.37711 31.6896L16.1224 37.21C16.3654 37.3492 16.6417 37.4225 16.9229 37.4224C17.2043 37.4224 17.4806 37.3489 17.7235 37.2097L29.6215 30.4722V35.1374L29.6216 35.1455C29.6216 35.1679 29.6162 35.1901 29.6061 35.2103C29.5958 35.2303 29.5809 35.2478 29.5626 35.2612L19.711 40.8397C18.3172 41.6264 16.7371 42.0407 15.1287 42.0411C13.5187 42.0409 11.937 41.6256 10.5423 40.8368C9.14756 40.0481 7.98875 38.9142 7.1821 37.5476ZM4.6183 16.6831C5.68865 14.8599 7.3787 13.4639 9.3927 12.7394C9.3927 12.8217 9.38791 12.9675 9.38791 13.0687V24.1098L9.38774 24.1189C9.38778 24.393 9.4618 24.6623 9.60229 24.8993C9.74277 25.1363 9.94471 25.3327 10.1876 25.4684L22.0856 32.2049L17.9666 34.5374C17.9463 34.5505 17.923 34.5584 17.8987 34.5607C17.8746 34.5628 17.8502 34.559 17.8277 34.5497L7.97511 28.9667C6.58231 28.1754 5.42603 27.0391 4.62214 25.6714C3.81827 24.3038 3.39502 22.753 3.39485 21.1743C3.39546 19.5983 3.81699 18.0493 4.6183 16.6831ZM38.4607 24.4066L26.5627 17.6694L30.6818 15.3377C30.7022 15.3246 30.7255 15.3165 30.7497 15.3144C30.774 15.3121 30.7984 15.3159 30.8207 15.3253L40.6732 20.9036C42.0672 21.6936 43.2247 22.8295 44.0295 24.1969C44.8344 25.5644 45.2583 27.1155 45.2586 28.6944C45.2586 32.4631 42.8607 35.8352 39.2553 37.1368V25.7656C39.2558 25.7613 39.2558 25.7569 39.2558 25.7528C39.2558 25.4797 39.1822 25.2113 39.0426 24.975C38.903 24.7386 38.7022 24.5425 38.4607 24.4066ZM42.5604 18.3552C42.4647 18.2977 42.3681 18.2413 42.271 18.1861L32.5257 12.6653C32.2828 12.5265 32.0066 12.4533 31.7254 12.4532C31.4442 12.4533 31.168 12.5265 30.9251 12.6653L19.0269 19.4027V14.7376L19.0267 14.7295C19.0267 14.684 19.0487 14.6411 19.0859 14.6137L28.9375 9.04013C30.3309 8.25226 31.9111 7.8375 33.5196 7.83743C38.5849 7.83743 42.6927 11.866 42.6927 16.8336C42.6926 17.3434 42.6482 17.8527 42.5604 18.3552ZM16.7874 26.6701L12.6675 24.3375C12.6459 24.327 12.6272 24.3114 12.6133 24.2921C12.5993 24.2727 12.5904 24.2503 12.5873 24.2269V13.0684C12.5896 8.10336 16.6973 4.07817 21.7606 4.07817C23.9049 4.07859 25.9815 4.81532 27.6299 6.16048C27.5558 6.20019 27.4264 6.27024 27.3405 6.32135L17.5952 11.8419C17.3519 11.9775 17.1498 12.1739 17.0092 12.4111C16.8684 12.6482 16.7943 12.9177 16.7943 13.192V13.2009L16.7874 26.6701ZM19.025 21.939L24.3241 18.9373L29.6233 21.9368V27.9381L24.3241 30.938L19.025 27.9381V21.939Z" fill="#1C1C1C"/>
<path d="M62.1943 37.6458V13.0041H66.6582V23.436H78.0767V13.0041H82.5527V37.6458H78.0767V27.1778H66.6582V37.6458H62.1943ZM94.0734 37.9706C92.6215 37.9706 91.322 37.5977 90.175 36.8517C89.0279 36.1057 88.1215 35.0227 87.4558 33.6031C86.79 32.1832 86.4571 30.4586 86.4571 28.4292C86.4571 26.3757 86.7939 24.6432 87.4678 23.2314C88.1496 21.8116 89.068 20.7408 90.2231 20.0188C91.3782 19.2889 92.6656 18.9238 94.0854 18.9238C95.1682 18.9238 96.0586 19.1083 96.7565 19.4774C97.4544 19.8383 98.0079 20.2754 98.417 20.7889C98.8261 21.2942 99.1429 21.7715 99.3675 22.2207H99.548V19.1645H103.916V37.6458H99.6322V34.734H99.3675C99.1429 35.1832 98.8181 35.6604 98.3928 36.1658C97.9678 36.6632 97.4063 37.0883 96.7085 37.4412C96.0105 37.7942 95.1322 37.9706 94.0734 37.9706ZM95.2887 34.3972C96.2111 34.3972 96.9972 34.1484 97.6469 33.6512C98.2967 33.1458 98.79 32.4439 99.1268 31.5456C99.4638 30.6471 99.6322 29.6003 99.6322 28.4051C99.6322 27.21 99.4638 26.1712 99.1268 25.2889C98.798 24.4065 98.3087 23.7207 97.6589 23.2314C97.0172 22.7421 96.2271 22.4974 95.2887 22.4974C94.3181 22.4974 93.5079 22.7501 92.8582 23.2554C92.2085 23.7608 91.7191 24.4586 91.3902 25.349C91.0614 26.2394 90.8969 27.258 90.8969 28.4051C90.8969 29.5602 91.0614 30.5909 91.3902 31.4974C91.727 32.3957 92.2205 33.1057 92.8702 33.6271C93.5279 34.1404 94.334 34.3972 95.2887 34.3972ZM111.264 44.5763C110.671 44.5763 110.121 44.5281 109.616 44.4319C109.118 44.3436 108.721 44.2394 108.425 44.119L109.435 40.726C110.069 40.9105 110.635 40.9987 111.132 40.9907C111.629 40.9826 112.066 40.8262 112.443 40.5214C112.828 40.2247 113.153 39.7273 113.418 39.0295L113.791 38.0308L107.089 19.1645H111.709L115.969 33.1218H116.161L120.433 19.1645H125.065L117.665 39.8837C117.32 40.8624 116.863 41.7007 116.294 42.3985C115.724 43.1044 115.026 43.6418 114.2 44.0107C113.382 44.3878 112.403 44.5763 111.264 44.5763ZM128.079 37.6458V19.1645H132.435V26.6244H134.023L139.582 19.1645H144.828L137.981 28.2367L144.9 37.6458H139.63L134.564 30.6792H132.435V37.6458H128.079ZM153.466 37.9706C152.015 37.9706 150.716 37.5977 149.568 36.8517C148.422 36.1057 147.514 35.0227 146.849 33.6031C146.183 32.1832 145.851 30.4586 145.851 28.4292C145.851 26.3757 146.187 24.6432 146.861 23.2314C147.542 21.8116 148.462 20.7408 149.616 20.0188C150.771 19.2889 152.059 18.9238 153.479 18.9238C154.562 18.9238 155.453 19.1083 156.15 19.4774C156.847 19.8383 157.401 20.2754 157.81 20.7889C158.22 21.2942 158.536 21.7715 158.76 22.2207H158.941V19.1645H163.309V37.6458H159.026V34.734H158.76C158.536 35.1832 158.211 35.6604 157.786 36.1658C157.361 36.6632 156.799 37.0883 156.102 37.4412C155.405 37.7942 154.525 37.9706 153.466 37.9706ZM154.682 34.3972C155.605 34.3972 156.39 34.1484 157.041 33.6512C157.69 33.1458 158.183 32.4439 158.52 31.5456C158.858 30.6471 159.026 29.6003 159.026 28.4051C159.026 27.21 158.858 26.1712 158.52 25.2889C158.191 24.4065 157.702 23.7207 157.052 23.2314C156.411 22.7421 155.621 22.4974 154.682 22.4974C153.712 22.4974 152.902 22.7501 152.252 23.2554C151.601 23.7608 151.113 24.4586 150.784 25.349C150.455 26.2394 150.29 27.258 150.29 28.4051C150.29 29.5602 150.455 30.5909 150.784 31.4974C151.12 32.3957 151.614 33.1057 152.263 33.6271C152.921 34.1404 153.727 34.3972 154.682 34.3972ZM184.651 20.873C184.45 20.2233 184.174 19.6418 183.821 19.1284C183.476 18.607 183.058 18.1619 182.57 17.7928C182.088 17.4238 181.535 17.1471 180.91 16.9626C180.283 16.7702 179.601 16.6739 178.864 16.6739C177.54 16.6739 176.361 17.0068 175.326 17.6726C174.291 18.3383 173.477 19.3168 172.884 20.6083C172.298 21.8918 172.006 23.456 172.006 25.3009C172.006 27.1619 172.298 28.738 172.884 30.0295C173.47 31.3209 174.283 32.3035 175.326 32.9774C176.369 33.6432 177.581 33.976 178.96 33.976C180.211 33.976 181.294 33.7353 182.208 33.2541C183.13 32.7728 183.84 32.0909 184.339 31.2086C184.836 30.3183 185.084 29.2754 185.084 28.0802L186.095 28.2367H179.405V24.7473H189.404V27.7072C189.404 29.8168 188.954 31.6418 188.056 33.1819C187.158 34.722 185.923 35.9092 184.35 36.7434C182.777 37.5696 180.973 37.9826 178.936 37.9826C176.666 37.9826 174.672 37.4733 172.956 36.4545C171.247 35.4279 169.912 33.972 168.949 32.087C167.995 30.1939 167.518 27.948 167.518 25.349C167.518 23.3597 167.798 21.583 168.359 20.0188C168.929 18.4545 169.723 17.1271 170.742 16.0362C171.76 14.9372 172.956 14.103 174.328 13.5335C175.699 12.9559 177.191 12.6672 178.803 12.6672C180.167 12.6672 181.439 12.8677 182.618 13.2688C183.797 13.6618 184.844 14.2233 185.758 14.9533C186.681 15.6832 187.439 16.5495 188.032 17.5521C188.626 18.5549 189.014 19.6619 189.199 20.873H184.651ZM193.72 37.6458V13.0041H202.961C204.854 13.0041 206.443 13.357 207.726 14.0629C209.016 14.7688 209.992 15.7394 210.65 16.9747C211.315 18.202 211.648 19.5976 211.648 21.1619C211.648 22.7421 211.315 24.1458 210.65 25.373C209.983 26.6003 209.001 27.5669 207.702 28.2728C206.402 28.9706 204.802 29.3196 202.901 29.3196H196.776V25.6497H202.299C203.406 25.6497 204.312 25.4573 205.018 25.0723C205.724 24.6872 206.245 24.1578 206.582 23.4841C206.927 22.8103 207.099 22.0362 207.099 21.1619C207.099 20.2874 206.927 19.5175 206.582 18.8517C206.245 18.1859 205.72 17.6685 205.006 17.2996C204.3 16.9225 203.39 16.734 202.275 16.734H198.184V37.6458H193.72ZM214.442 16.746V13.0041H234.103V16.746H226.487V37.6458H222.058V16.746H214.442Z" fill="black"/>
<path d="M247.529 18.4458C247.529 15.2832 247.529 13.7018 248.143 12.4939C248.685 11.4313 249.549 10.5674 250.612 10.026C251.819 9.41052 253.4 9.41052 256.564 9.41052H283.67C286.832 9.41052 288.414 9.41052 289.621 10.026C290.684 10.5674 291.548 11.4313 292.09 12.4939C292.705 13.7018 292.705 15.2832 292.705 18.4458V31.4341C292.705 34.5967 292.705 36.178 292.09 37.3861C291.548 38.4486 290.684 39.3124 289.621 39.8538C288.414 40.4694 286.832 40.4694 283.67 40.4694H256.564C253.4 40.4694 251.819 40.4694 250.612 39.8538C249.549 39.3124 248.685 38.4486 248.143 37.3861C247.529 36.178 247.529 34.5967 247.529 31.4341V18.4458Z" fill="#7625E1"/>
<path d="M254.667 30.587V18.2661H258.831C259.798 18.2661 260.588 18.4406 261.201 18.7896C261.819 19.1345 262.277 19.6018 262.573 20.1913C262.87 20.7809 263.018 21.4386 263.018 22.1646C263.018 22.8905 262.87 23.5502 262.573 24.1439C262.28 24.7374 261.827 25.2107 261.214 25.5637C260.6 25.9125 259.813 26.087 258.855 26.087H255.872V24.7635H258.807C259.469 24.7635 260 24.6491 260.401 24.4206C260.803 24.192 261.092 23.8831 261.273 23.4942C261.458 23.101 261.55 22.6578 261.55 22.1646C261.55 21.6713 261.458 21.2301 261.273 20.841C261.092 20.4519 260.8 20.1471 260.395 19.9266C259.99 19.702 259.453 19.5896 258.783 19.5896H256.16V30.587H254.667ZM266.649 18.2661V30.587H265.229V18.2661H266.649ZM275.073 26.809V21.3463H276.492V30.587H275.073V29.0228H274.977C274.76 29.492 274.424 29.8912 273.966 30.2201C273.509 30.5449 272.931 30.7073 272.233 30.7073C271.655 30.7073 271.143 30.5809 270.694 30.3284C270.243 30.0716 269.891 29.6866 269.635 29.1733C269.378 28.6559 269.25 28.0042 269.25 27.218V21.3463H270.668V27.1218C270.668 27.7955 270.858 28.333 271.235 28.7341C271.616 29.1352 272.101 29.3356 272.69 29.3356C273.043 29.3356 273.403 29.2454 273.767 29.065C274.136 28.8844 274.445 28.6077 274.693 28.2347C274.946 27.8617 275.073 27.3865 275.073 26.809ZM285.639 23.4159L284.363 23.7768C284.283 23.5643 284.165 23.3578 284.008 23.1572C283.856 22.9526 283.647 22.7842 283.383 22.6519C283.117 22.5195 282.779 22.4533 282.366 22.4533C281.8 22.4533 281.329 22.5837 280.952 22.8443C280.579 23.101 280.393 23.4279 280.393 23.8249C280.393 24.1779 280.521 24.4567 280.778 24.6613C281.034 24.8657 281.436 25.0362 281.981 25.1726L283.353 25.5095C284.179 25.7101 284.795 26.0168 285.2 26.4299C285.605 26.8391 285.807 27.3664 285.807 28.0121C285.807 28.5415 285.654 29.0149 285.349 29.4319C285.049 29.8491 284.628 30.1779 284.086 30.4186C283.545 30.6592 282.915 30.7796 282.197 30.7796C281.255 30.7796 280.475 30.575 279.858 30.1659C279.239 29.7568 278.848 29.1592 278.684 28.3731L280.031 28.0362C280.16 28.5336 280.403 28.9066 280.76 29.1552C281.121 29.4038 281.591 29.5282 282.173 29.5282C282.835 29.5282 283.36 29.3879 283.75 29.1071C284.142 28.8223 284.339 28.4814 284.339 28.0844C284.339 27.7635 284.227 27.4948 284.003 27.2781C283.778 27.0576 283.432 26.8931 282.968 26.7848L281.427 26.4239C280.58 26.2234 279.959 25.9125 279.563 25.4914C279.169 25.0663 278.972 24.5349 278.972 23.8972C278.972 23.3757 279.119 22.9145 279.411 22.5134C279.709 22.1125 280.112 21.7975 280.621 21.5689C281.134 21.3404 281.715 21.226 282.366 21.226C283.28 21.226 283.998 21.4266 284.519 21.8277C285.044 22.2287 285.419 22.7581 285.639 23.4159Z" fill="white"/>
</g>
<defs>
<clipPath id="clip0_204_450">
<rect width="293.647" height="48" fill="white" transform="translate(0.17627 0.939941)"/>
</clipPath>
</defs>
</svg>
