<svg width="40" height="40" viewBox="0 0 40 40" fill="none" xmlns="http://www.w3.org/2000/svg">
<rect x="0.292857" y="0.292857" width="39.4143" height="39.1286" rx="19.5643" fill="white"/>
<rect x="0.292857" y="0.292857" width="39.4143" height="39.1286" rx="19.5643" stroke="url(#paint0_linear_104_2798)" stroke-width="0.585714"/>
<path fill-rule="evenodd" clip-rule="evenodd" d="M19.8568 7.31543C18.3871 7.31543 16.9776 7.89928 15.9383 8.93855C14.899 9.97781 14.3152 11.3874 14.3152 12.8571C14.3152 14.3268 14.899 15.7364 15.9383 16.7756C16.9776 17.8149 18.3871 18.3988 19.8568 18.3988C21.3266 18.3988 22.7361 17.8149 23.7754 16.7756C24.8146 15.7364 25.3985 14.3268 25.3985 12.8571C25.3985 11.3874 24.8146 9.97781 23.7754 8.93855C22.7361 7.89928 21.3266 7.31543 19.8568 7.31543ZM16.0652 12.8571C16.0652 11.8515 16.4646 10.8871 17.1757 10.176C17.8868 9.46491 18.8512 9.06543 19.8568 9.06543C20.8624 9.06543 21.8269 9.46491 22.5379 10.176C23.249 10.8871 23.6485 11.8515 23.6485 12.8571C23.6485 13.8627 23.249 14.8271 22.5379 15.5382C21.8269 16.2493 20.8624 16.6488 19.8568 16.6488C18.8512 16.6488 17.8868 16.2493 17.1757 15.5382C16.4646 14.8271 16.0652 13.8627 16.0652 12.8571ZM19.8568 20.1488C17.1583 20.1488 14.671 20.7624 12.8288 21.7984C11.0135 22.8204 9.6485 24.3674 9.6485 26.2738V26.3928C9.64734 27.7484 9.64617 29.4494 11.1383 30.6651C11.8722 31.2624 12.9 31.6883 14.2883 31.9683C15.679 32.2506 17.4932 32.3988 19.8568 32.3988C22.2205 32.3988 24.0335 32.2506 25.4265 31.9683C26.8148 31.6883 27.8415 31.2624 28.5765 30.6651C30.0687 29.4494 30.0663 27.7484 30.0652 26.3928V26.2738C30.0652 24.3674 28.7002 22.8204 26.886 21.7984C25.0427 20.7624 22.5565 20.1488 19.8568 20.1488ZM11.3985 26.2738C11.3985 25.2809 12.1242 24.2029 13.6863 23.3244C15.2217 22.4611 17.401 21.8988 19.858 21.8988C22.3127 21.8988 24.492 22.4611 26.0273 23.3244C27.5907 24.2029 28.3152 25.2809 28.3152 26.2738C28.3152 27.7998 28.2685 28.6584 27.4705 29.3071C27.0388 29.6594 26.3155 30.0036 25.0788 30.2533C23.8457 30.5029 22.1598 30.6488 19.8568 30.6488C17.5538 30.6488 15.8668 30.5029 14.6348 30.2533C13.3982 30.0036 12.6748 29.6594 12.2432 29.3083C11.4452 28.6584 11.3985 27.7998 11.3985 26.2738Z" fill="#7625E1"/>
<defs>
<linearGradient id="paint0_linear_104_2798" x1="40" y1="19.8571" x2="0" y2="19.8571" gradientUnits="userSpaceOnUse">
<stop offset="0.0839999" stop-color="#ED66FF"/>
<stop offset="0.679" stop-color="#298DEF"/>
<stop offset="1" stop-color="#15CDFB"/>
</linearGradient>
</defs>
</svg>
